<svg xmlns="http://www.w3.org/2000/svg" x="0px" y="0px" width="100" height="100" viewBox="0,0,256,256">
<g fill="#ffffff" fill-rule="nonzero" stroke="none" stroke-width="1" stroke-linecap="butt" stroke-linejoin="miter" stroke-miterlimit="10" stroke-dasharray="" stroke-dashoffset="0" font-family="none" font-weight="none" font-size="none" text-anchor="none" style="mix-blend-mode: normal"><g transform="scale(5.12,5.12)"><path d="M25,2c-5.51562,0 -10,4.48438 -10,10v2h8v-5h4v5h8v-2c0,-5.51562 -4.48437,-10 -10,-10zM17.26563,10h3.73438v2h-4c0,-0.69141 0.09766,-1.35937 0.26563,-2zM30,11c0.55078,0 1,0.44922 1,1c0,0.55078 -0.44922,1 -1,1c-0.55078,0 -1,-0.44922 -1,-1c0,-0.55078 0.44922,-1 1,-1zM10,16c-0.55469,0 -1,0.44922 -1,1v2h-1v2h1v15.68359c0,0.10547 0.01953,0.21484 0.05469,0.31641l0.94531,3h3v-23c0,-0.55078 -0.44531,-1 -1,-1zM16,16c-0.55469,0 -1,0.44922 -1,1v20c0,0.55078 0.44531,1 1,1h18c0.55469,0 1,-0.44922 1,-1v-20c0,-0.55078 -0.44531,-1 -1,-1zM38,16c-0.55469,0 -1,0.44922 -1,1v23h3l0.94922,-3c0.03125,-0.10156 0.05078,-0.21094 0.05078,-0.31641v-15.68359h1v-2h-1v-2c0,-0.55078 -0.44531,-1 -1,-1zM18,19h14v2h-14zM23,24h4v12h-4zM31,34h2v2h-2zM17.13281,40l1.03516,1.55469c0.1875,0.27734 0.49609,0.44531 0.83203,0.44531h12c0.33594,0 0.64453,-0.16797 0.83203,-0.44531l1.03516,-1.55469zM10,42l-1.89453,3.55078c-0.07031,0.14063 -0.10547,0.29297 -0.10547,0.44922v1c0,0.55078 0.44531,1 1,1h3c0.55469,0 1,-0.44922 1,-1v-5zM37,42v5c0,0.55078 0.44531,1 1,1h3c0.55469,0 1,-0.44922 1,-1v-1c0,-0.15625 -0.03516,-0.30859 -0.10547,-0.44922l-1.89453,-3.55078z"></path></g></g>
</svg>