<svg xmlns="http://www.w3.org/2000/svg" x="0px" y="0px" width="100" height="100" viewBox="0,0,256,256">
<g fill="#ffffff" fill-rule="nonzero" stroke="none" stroke-width="1" stroke-linecap="butt" stroke-linejoin="miter" stroke-miterlimit="10" stroke-dasharray="" stroke-dashoffset="0" font-family="none" font-weight="none" font-size="none" text-anchor="none" style="mix-blend-mode: normal"><g transform="scale(5.12,5.12)"><path d="M24.98438,2.98633c-0.04844,0.00105 -0.09675,0.00562 -0.14453,0.01367h-1.47266c-0.11793,0 -0.26141,0.00078 -0.41992,0.01172c-6.5271,0.18953 -12.05466,4.89173 -13.30273,11.25391l-1.58789,0.64648c-0.052,0.021 -0.10434,0.04913 -0.15234,0.07813c-0.98,0.609 -1.64903,1.59859 -1.83203,2.68359c-0.059,0.293 -0.08136,0.58266 -0.06836,0.84766l0.16016,5.08008c0.044,1.098 0.68152,2.08302 1.60352,2.54102l0.78125,0.45898c-0.13572,3.07708 -0.16469,5.86498 -0.06055,7.96875c0,0.00065 0,0.0013 0,0.00195c0.01552,0.29483 0.07556,0.57043 0.16016,0.82422c0.2168,0.65039 0.66093,1.19085 1.22852,1.55469c0.00518,0.0033 0.01039,0.00656 0.01563,0.00977c2.23723,1.38087 6.74676,3.40053 10.89258,4.42578c0.0039,0.00133 0.0078,0.00263 0.01172,0.00391c0.99594,0.24642 1.97919,0.43394 2.90234,0.52148c0.47829,0.06555 0.92954,0.08789 1.34766,0.08789c0.41752,0 0.87012,-0.02255 1.34766,-0.08789c0.92316,-0.08754 1.90641,-0.27507 2.90234,-0.52148c4.14906,-1.02433 8.66689,-3.0475 10.90625,-4.42969c0.00131,-0.0013 0.00261,-0.0026 0.00391,-0.00391c0.83295,-0.52059 1.35249,-1.41841 1.39844,-2.38672c0.1048,-2.11691 0.07692,-4.92511 -0.06055,-8.02539l0.63086,-0.37109c0.98,-0.49 1.61711,-1.47698 1.66211,-2.58398l0.1582,-5.05469c0.012,-0.279 -0.0105,-0.56903 -0.0625,-0.83203c-0.188,-1.115 -0.85789,-2.10289 -1.83789,-2.71289c-0.048,-0.029 -0.09839,-0.05712 -0.15039,-0.07812l-1.49023,-0.60547c-1.23245,-6.38272 -6.76765,-11.10499 -13.30859,-11.29492c-0.15851,-0.01094 -0.302,-0.01172 -0.41992,-0.01172h-1.57227c-0.05615,-0.00939 -0.113,-0.01396 -0.16992,-0.01367zM23.36719,5h0.63281v10c-0.0051,0.36064 0.18438,0.69608 0.49587,0.87789c0.3115,0.18181 0.69676,0.18181 1.00825,0c0.3115,-0.18181 0.50097,-0.51725 0.49587,-0.87789v-10h0.72656c0.03763,0 0.0528,0.00173 0.08594,0.00195l1.12109,12.78711c-1.17555,0.14044 -2.18616,0.21094 -2.88672,0.21094c-0.71827,0 -1.76636,-0.07677 -2.98047,-0.22461l1.12109,-12.77148c0.05645,-0.00135 0.101,-0.00391 0.17969,-0.00391zM11.31836,16.94336c4.73563,2.23237 10.87099,3.05664 13.72852,3.05664c2.85731,0 8.99302,-0.82466 13.72852,-3.05664c0.16833,1.50482 0.32012,3.00928 0.4375,4.49609c-6.3451,1.81477 -10.64406,8.50627 -11.04492,18.12695c-0.62491,0.13581 -1.24708,0.26416 -1.80273,0.33008l0.92188,-11.64648c0.16,-1.98 1.47008,-3.92008 3.33008,-4.58008l4.91211,-1.91016c0.92,-0.32 1.63039,-1.07 1.90039,-2l0.57031,-1.25977c-6.5,3 -10.95312,3 -12.95312,3c-0.99,0 -2.72,0.00086 -5,-0.36914c-0.92,-0.14 -1.46688,-0.35063 -2.54687,-0.64062c-0.33,-0.08 -2.31,-0.69117 -3,-0.95117c-0.8,-0.3 -1.64,-0.63906 -2.5,-1.03906l0.57031,1.25977c0.27,0.93 0.98039,1.68 1.90039,2l0.0293,0.00977l2,0.70117l1,0.34961l1.97656,0.84961c0.2,0.07 0.39031,0.15023 0.57031,0.24023c1.55,0.78 2.61977,2.56984 2.75977,4.33984l0.92188,11.64648c-0.55566,-0.06589 -1.17783,-0.19427 -1.80273,-0.33008c-0.40089,-9.62128 -4.69918,-16.31267 -11.04492,-18.12695c0.11738,-1.48681 0.26917,-2.99128 0.4375,-4.49609zM35.75195,41.34766c-1.912,0.777 -3.98861,1.49437 -5.97461,1.98438c-1.178,0.292 -2.2627,0.48522 -3.2207,0.57422c-0.386,0.058 -0.92677,0.09375 -1.50977,0.09375c-0.587,0 -1.12644,-0.03637 -1.64844,-0.10937c-0.828,-0.073 -1.89703,-0.26459 -3.08203,-0.55859c-1.984,-0.49 -4.05784,-1.20547 -5.96484,-1.98047c2.144,3.213 6.60322,6.64844 10.69922,6.64844c4.097,0 8.55717,-3.43734 10.70117,-6.65234z"></path></g></g>
</svg>